<?xml version="1.0" standalone="no"?>
<!DOCTYPE svg PUBLIC "-//W3C//DTD SVG 20010904//EN"
 "http://www.w3.org/TR/2001/REC-SVG-20010904/DTD/svg10.dtd">
<svg version="1.0" xmlns="http://www.w3.org/2000/svg"
 width="300.000000pt" height="300.000000pt" viewBox="0 0 300.000000 300.000000"
 preserveAspectRatio="xMidYMid meet">
<metadata>
Created by potrace 1.10, written by Peter Selinger 2001-2011
</metadata>
<g transform="translate(0.000000,300.000000) scale(0.100000,-0.100000)"
fill="#000000" stroke="none">
<path d="M278 2370 c-72 -38 -98 -102 -98 -239 0 -209 45 -388 128 -509 25
-36 71 -118 103 -181 44 -89 74 -134 129 -193 104 -113 262 -215 446 -289 72
-28 334 -100 414 -113 130 -21 437 -46 578 -46 92 -1 253 -6 357 -12 325 -19
345 -17 401 57 68 90 29 216 -85 274 -64 33 -148 41 -521 51 -436 11 -650 32
-842 85 -182 50 -272 87 -376 155 -105 69 -129 97 -173 200 -17 41 -55 110
-84 152 -30 43 -60 100 -69 126 -18 54 -36 192 -36 269 0 100 -53 196 -123
222 -43 17 -108 12 -149 -9z"/>
</g>
</svg>
